<?xml version="1.0" standalone="no"?>
<!DOCTYPE svg PUBLIC "-//W3C//DTD SVG 20010904//EN"
 "http://www.w3.org/TR/2001/REC-SVG-20010904/DTD/svg10.dtd">
<svg version="1.0" xmlns="http://www.w3.org/2000/svg"
 width="200.000000pt" height="200.000000pt" viewBox="0 0 200.000000 200.000000"
 preserveAspectRatio="xMidYMid meet">

<g transform="translate(0.000000,200.000000) scale(0.100000,-0.100000)"
fill="#5f6f52" stroke="none">
<path d="M0 1000 l0 -1000 1000 0 1000 0 0 1000 0 1000 -1000 0 -1000 0 0
-1000z m570 105 l0 -345 185 0 185 0 0 -75 0 -75 -270 0 -270 0 0 420 0 420
85 0 85 0 0 -345z m906 329 c71 -23 124 -63 159 -119 28 -45 30 -56 30 -139 0
-102 -11 -132 -71 -190 -59 -57 -124 -76 -264 -76 l-119 0 -3 -147 -3 -148
-87 -3 -88 -3 0 421 0 420 199 0 c154 0 210 -4 247 -16z"/>
<path d="M1210 1180 l0 -130 83 0 c155 0 192 24 192 125 0 53 -4 68 -24 89
-32 34 -78 46 -173 46 l-78 0 0 -130z"/>
</g>
</svg>
